<svg xmlns="http://www.w3.org/2000/svg" xmlns:xlink="http://www.w3.org/1999/xlink" width="1200" height="1200" viewBox="0 0 1200 1200"><rect width="100%" height="100%" fill="#CC0000"/><g transform="translate(600 600) scale(0.69 0.69) rotate(0) translate(-600 -600)" style="fill:#FFFFFF"><svg fill="#FFFFFF" xmlns="http://www.w3.org/2000/svg" xmlns:xlink="http://www.w3.org/1999/xlink" version="1.1" baseProfile="tiny" x="0px" y="0px" viewBox="0 0 100 100" xml:space="preserve"><g><path fill="#FFFFFF" d="M64.4,83.8c-13.2,0.9-24.8-9.1-25.7-22.3c0-0.1,0-0.3,0-0.4c-0.5-10.3,7.4-19.3,17.7-20   c8.3-0.6,15.6,5.7,16.2,14C73,61.7,68,67.4,61.5,67.9c-5.2,0.4-9.7-3.5-10.1-8.7c0-0.2,0-0.3,0-0.5c0-1.8,0.6-3.5,1.8-4.9   c1.3-1.5,3.1-2.4,5.1-2.5c3.2-0.2,5.9,2.2,6.2,5.3c0.1,1.2-0.3,2.3-1.1,3.2c-0.8,0.9-1.9,1.4-3,1.5c-0.9,0.1-1.8-0.2-2.5-0.8   c-0.7-0.6-1.1-1.4-1.2-2.3c0-0.2,0-0.4,0-0.6c0.1-0.5,0.3-0.9,0.6-1.3c0.5-0.5,1.1-0.8,1.8-0.9c0.8-0.1,1.5,0.4,1.8,1   c-0.3-0.5-1-0.8-1.6-0.8c-0.6,0-1.1,0.3-1.4,0.7c-0.3,0.3-0.4,0.7-0.5,1.1c0,0.1,0,0.3,0,0.4c0,0.6,0.3,1.2,0.8,1.7   c0.5,0.4,1.1,0.6,1.8,0.6c0.8-0.1,1.5-0.4,2-1c0.5-0.6,0.8-1.3,0.7-2.1c-0.1-1.9-1.8-3.3-3.6-3.2c-1.1,0.1-2.1,0.6-2.8,1.4   c-0.6,0.7-1,1.6-1,2.6c0,0.1,0,0.3,0,0.4c0.1,1.3,0.7,2.5,1.7,3.4c1,0.9,2.3,1.3,3.6,1.2c1.6-0.1,3-0.8,4.1-2   c1-1.2,1.6-2.7,1.4-4.3c-0.3-4-3.8-7-7.7-6.7c-2.4,0.2-4.5,1.2-6.1,3c-1.5,1.7-2.2,3.9-2.2,6.1c0,0.1,0,0.2,0,0.3   c0.4,6,5.6,10.5,11.6,10.1c7.4-0.5,13-7,12.4-14.3c-0.6-9.1-8.6-16-17.7-15.4C45,40.4,36.5,50.2,37.2,61.4c0,0-5.5-1.7-15.3-1.1   C12.2,61,7.6,67.1,7.6,67.1c-0.9-12.7,3.2-24.9,11.6-34.5c8.4-9.6,19.9-15.4,32.7-16.3C72.7,14.8,91,30.6,92.4,51.5   C93.6,68.1,81,82.6,64.4,83.8z"/></g></svg></g></svg>